HIERARCHY
ROOT root
{
	OFFSET 0.000000 0.000000 0.000000
	CHANNELS 6 Xposition Yposition Zposition Zrotation Yrotation Xrotation
	JOINT lhip
	{
		OFFSET 0.058581 -0.082280 -0.017664
		CHANNELS 3 Zrotation Yrotation Xrotation
		JOINT lknee
		{
			OFFSET 0.043451 -0.386469 0.008037
			CHANNELS 3 Zrotation Yrotation Xrotation
			JOINT lankle
			{
				OFFSET -0.014790 -0.426874 -0.037428
				CHANNELS 3 Zrotation Yrotation Xrotation
				JOINT ltoe
				{
					OFFSET 0.041054 -0.060286 0.122042
					CHANNELS 3 Zrotation Yrotation Xrotation
					End Site
					{
						OFFSET 0.000000 0.000000 0.000000
					}
				}
			}
		}
	}
	JOINT rhip
	{
		OFFSET -0.060310 -0.090513 -0.013543
		CHANNELS 3 Zrotation Yrotation Xrotation
		JOINT rknee
		{
			OFFSET -0.043257 -0.383688 -0.004843
			CHANNELS 3 Zrotation Yrotation Xrotation
			JOINT rankle
			{
				OFFSET 0.019056 -0.420046 -0.034562
				CHANNELS 3 Zrotation Yrotation Xrotation
				JOINT rtoe
				{
					OFFSET -0.034840 -0.062106 0.130323
					CHANNELS 3 Zrotation Yrotation Xrotation
					End Site
					{
						OFFSET 0.000000 0.000000 0.000000
					}
				}
			}
		}
	}
	JOINT lowerback
	{
		OFFSET 0.004439 0.124404 -0.038385
		CHANNELS 3 Zrotation Yrotation Xrotation
		JOINT upperback
		{
			OFFSET 0.004488 0.137956 0.026820
			CHANNELS 3 Zrotation Yrotation Xrotation
			JOINT chest
			{
				OFFSET -0.002265 0.056032 0.002855
				CHANNELS 3 Zrotation Yrotation Xrotation
				JOINT lowerneck
				{
					OFFSET -0.013390 0.211636 -0.033468
					CHANNELS 3 Zrotation Yrotation Xrotation
					JOINT upperneck
					{
						OFFSET 0.010113 0.088937 0.050410
						CHANNELS 3 Zrotation Yrotation Xrotation
						End Site
						{
							OFFSET 0.000000 0.000000 0.000000
						}
					}
				}
				JOINT lclavicle
				{
					OFFSET 0.071702 0.114000 -0.018898
					CHANNELS 3 Zrotation Yrotation Xrotation
					JOINT lshoulder
					{
						OFFSET 0.122921 0.045205 -0.019046
						CHANNELS 3 Zrotation Yrotation Xrotation
						JOINT lelbow
						{
							OFFSET 0.255332 -0.015649 -0.022946
							CHANNELS 3 Zrotation Yrotation Xrotation
							JOINT lwrist
							{
								OFFSET 0.265709 0.012698 -0.007375
								CHANNELS 3 Zrotation Yrotation Xrotation
								End Site
								{
									OFFSET 0.000000 0.000000 0.000000
								}
							}
						}
					}
				}
				JOINT rclavicle
				{
					OFFSET -0.082954 0.112472 -0.023707
					CHANNELS 3 Zrotation Yrotation Xrotation
					JOINT rshoulder
					{
						OFFSET -0.113228 0.046853 -0.008472
						CHANNELS 3 Zrotation Yrotation Xrotation
						JOINT relbow
						{
							OFFSET -0.260127 -0.014369 -0.031269
							CHANNELS 3 Zrotation Yrotation Xrotation
							JOINT rwrist
							{
								OFFSET -0.269108 0.006794 -0.006027
								CHANNELS 3 Zrotation Yrotation Xrotation
								End Site
								{
									OFFSET 0.000000 0.000000 0.000000
								}
							}
						}
					}
				}
			}
		}
	}
}
MOTION
Frames: 6
Frame Time: 0.033333
1.149947 0.167954 1.129900 -85.459156 2.967006 85.831497 0.566354 0.747481 8.603969 -2.627518 -15.890648 -0.315441 5.883674 6.869331 -15.119310 0.000000 -0.000000 0.000000 4.330492 -1.806907 5.292991 4.368916 1.467068 5.428743 2.542204 -1.604640 -10.019560 0.000000 -0.000000 0.000000 -1.493684 0.875017 6.685373 1.101126 -3.158774 3.415109 0.993880 -2.307720 3.564256 1.465726 1.606121 11.689918 4.995775 -0.100648 1.174293 -25.132388 3.887595 3.282358 -63.955314 -7.703404 6.544014 11.268388 -22.705940 2.958005 -3.662284 0.604710 -8.405716 22.158941 -4.329752 1.944150 64.882403 0.867812 8.365572 -16.407547 26.324230 -5.368005 9.097028 -1.186716 -12.581600 
1.149897 0.167985 1.129893 -85.445912 2.958135 85.854130 0.546646 0.658116 8.554695 -2.627228 -15.725091 -0.288253 5.787533 6.837737 -15.225303 0.000000 -0.000000 0.000000 4.354240 -1.655897 5.323726 4.340574 1.379854 5.367784 2.694937 -1.785450 -10.111719 0.000000 -0.000000 0.000000 -1.508860 0.876802 6.642173 1.147934 -3.123187 3.408166 0.985654 -2.378158 3.657856 1.555991 0.831626 10.519967 4.387506 -1.019281 1.108431 -25.222315 4.045427 3.138577 -63.906884 -7.704150 6.664611 11.149457 -22.627602 3.191492 -3.878928 0.438619 -8.540073 22.060292 -4.377330 1.743441 64.999831 0.768055 8.557690 -16.435938 26.176542 -5.303841 8.884549 -1.216797 -12.614277 
1.149896 0.167940 1.129985 -85.468206 2.940366 85.898862 0.518548 0.626707 8.501792 -2.645393 -15.750415 -0.254084 5.750084 6.873868 -15.149806 0.000000 -0.000000 0.000000 4.362265 -1.496799 5.317218 4.350855 1.443359 5.261543 2.645320 -1.914423 -9.895566 0.000000 -0.000000 0.000000 -1.504272 0.866412 6.606419 1.174072 -3.118230 3.388962 0.983594 -2.401676 3.654536 1.543140 -0.035241 9.455585 3.945128 -1.882073 0.907344 -25.418356 4.103568 3.051524 -63.764628 -7.524799 6.716763 11.169804 -22.679084 3.362337 -3.879340 0.469014 -8.541875 22.053619 -4.338933 1.698817 65.011477 0.669958 8.593387 -16.471388 26.149801 -5.334690 8.742462 -1.287036 -12.530093 
1.150089 0.168206 1.130052 -85.558175 2.946608 85.902507 0.526498 0.644905 8.408440 -2.641203 -15.636149 -0.128590 5.697256 6.825206 -15.251542 0.000000 -0.000000 0.000000 4.414062 -1.484887 5.282659 4.292963 1.603766 5.359687 2.682207 -1.986383 -9.948283 0.000000 -0.000000 0.000000 -1.523637 0.892427 6.612741 1.233739 -3.085418 3.385173 1.014289 -2.405215 3.692128 1.647041 -1.102821 7.982849 3.183319 -2.939486 0.841715 -25.733564 4.210668 2.922952 -63.551024 -7.387278 6.667969 11.176254 -22.756127 3.208198 -3.957194 0.476746 -8.353023 22.094537 -4.306821 1.547016 64.911147 0.582706 8.612140 -16.446491 26.057879 -5.511381 8.590157 -1.253809 -12.288811 
1.150198 0.168182 1.130072 -85.549863 2.905114 85.957176 0.496458 0.641506 8.280156 -2.683082 -15.653793 -0.027290 5.649234 6.852123 -15.277829 0.000000 -0.000000 0.000000 4.342271 -1.499040 5.199657 4.352264 1.643215 5.448521 2.739200 -2.190320 -10.213207 0.000000 -0.000000 0.000000 -1.513373 0.896872 6.585111 1.252445 -3.097644 3.302216 0.998498 -2.444593 3.741268 1.665706 -1.685201 7.136505 2.800356 -3.587733 0.753157 -25.858697 4.292081 2.841546 -63.469682 -7.332486 6.667328 11.082098 -22.605929 3.231516 -3.803745 0.321801 -8.497627 22.104875 -4.310253 1.412299 64.832117 0.511969 8.651673 -16.341718 25.967142 -5.466522 8.419994 -1.232204 -12.183085 
1.150026 0.168266 1.130099 -85.505469 2.932722 85.949517 0.569913 0.682112 8.249035 -2.742662 -15.610823 0.036622 5.571414 6.765753 -15.350669 0.000000 -0.000000 0.000000 4.361661 -1.480266 5.262097 4.412053 1.730060 5.390946 2.693786 -2.408297 -10.186099 0.000000 -0.000000 0.000000 -1.474507 0.859479 6.565928 1.297333 -3.123210 3.306684 0.988850 -2.460008 3.767959 1.711829 -2.520053 5.985813 2.265280 -4.398835 0.687274 -26.016758 4.357678 2.713742 -63.328528 -7.271688 6.692906 10.947341 -22.473670 3.483865 -3.691750 0.221955 -8.646457 22.099042 -4.258084 1.303616 64.826511 0.377650 8.716931 -16.371184 25.925895 -5.522268 8.176986 -1.141131 -12.184850 
